<svg width="128" height="128" viewBox="0 0 128 128" fill="none" xmlns="http://www.w3.org/2000/svg">
<rect width="128" height="128" rx="20" fill="#E8E8E8"/>
<path d="M40 38H88C90.2091 38 92 39.7909 92 42V86C92 88.2091 90.2091 90 88 90H40C37.7909 90 36 88.2091 36 86V42C36 39.7909 37.7909 38 40 38Z" fill="#F0EBE1" stroke="#333333" stroke-width="4"/>
<rect x="44" y="46" width="40" height="8" rx="2" fill="#333333"/>
<rect x="44" y="60" width="15" height="8" rx="2" fill="#333333"/>
<rect x="61" y="60" width="15" height="8" rx="2" fill="#333333"/>
<rect x="78" y="60" width="6" height="8" rx="2" fill="#333333"/>
<path d="M50 78L55 83L65 73" stroke="#333333" stroke-width="4" stroke-linecap="round" stroke-linejoin="round"/>
<path d="M78 78L73 83L63 73" stroke="#333333" stroke-width="4" stroke-linecap="round" stroke-linejoin="round"/>
<rect x="18" y="18" width="24" height="24" rx="6" fill="#6A5ACD"/>
<path d="M26 22H34V26H26V22Z" fill="white"/>
<path d="M30 30L34 26H26L30 30Z" fill="white"/>
<rect x="86" y="18" width="24" height="24" rx="6" fill="#FF5733"/>
<path d="M94 22H102V26H94V22Z" fill="white"/>
<path d="M98 30L102 26H94L98 30Z" fill="white"/>
<rect x="18" y="86" width="24" height="24" rx="6" fill="#3CB371"/>
<path d="M26 90H34V94H26V90Z" fill="white"/>
<path d="M30 98L34 94H26L30 98Z" fill="white"/>
<rect x="86" y="86" width="24" height="24" rx="6" fill="#FFD700"/>
<path d="M94 90H102V94H94V90Z" fill="white"/>
<path d="M98 98L102 94H94L98 98Z" fill="white"/>
</svg>