<svg width="16" height="16" viewBox="0 0 16 16" fill="none" xmlns="http://www.w3.org/2000/svg">
<rect width="16" height="16" rx="2" fill="#E8E8E8"/>
<path d="M5 4.5H11C11.2761 4.5 11.5 4.72386 11.5 5V11C11.5 11.2761 11.2761 11.5 11 11.5H5C4.72386 11.5 4.5 11.2761 4.5 11V5C4.5 4.72386 4.72386 4.5 5 4.5Z" fill="#F0EBE1" stroke="#333333" stroke-width="0.5"/>
<rect x="5.5" y="6" width="5" height="1" rx="0.5" fill="#333333"/>
<rect x="5.5" y="8" width="2" height="1" rx="0.5" fill="#333333"/>
<rect x="8" y="8" width="2" height="1" rx="0.5" fill="#333333"/>
<rect x="10.5" y="8" width="0.5" height="1" rx="0.5" fill="#333333"/>
<path d="M6.5 10L7.5 11L9.5 9" stroke="#333333" stroke-width="0.5" stroke-linecap="round" stroke-linejoin="round"/>
<path d="M10.5 10L9.5 11L7.5 9" stroke="#333333" stroke-width="0.5" stroke-linecap="round" stroke-linejoin="round"/>
<rect x="2" y="2" width="3" height="3" rx="1" fill="#6A5ACD"/>
<path d="M3 2.5H4V3H3V2.5Z" fill="white"/>
<path d="M3.5 4.5L4 3H3L3.5 4.5Z" fill="white"/>
<rect x="11" y="2" width="3" height="3" rx="1" fill="#FF5733"/>
<path d="M12 2.5H13V3H12V2.5Z" fill="white"/>
<path d="M12.5 4.5L13 3H12L12.5 4.5Z" fill="white"/>
<rect x="2" y="11" width="3" height="3" rx="1" fill="#3CB371"/>
<path d="M3 11.5H4V12H3V11.5Z" fill="white"/>
<path d="M3.5 13.5L4 12H3L3.5 13.5Z" fill="white"/>
<rect x="11" y="11" width="3" height="3" rx="1" fill="#FFD700"/>
<path d="M12 11.5H13V12H12V11.5Z" fill="white"/>
<path d="M12.5 13.5L13 12H12L12.5 13.5Z" fill="white"/>
</svg>