<svg width="48" height="48" viewBox="0 0 48 48" fill="none" xmlns="http://www.w3.org/2000/svg">
<rect width="48" height="48" rx="7" fill="#E8E8E8"/>
<path d="M15 14H33C33.8284 14 34.5 14.6716 34.5 15.5V32.5C34.5 33.3284 33.8284 34 33 34H15C14.1716 34 13.5 33.3284 13.5 32.5V15.5C13.5 14.6716 14.1716 14 15 14Z" fill="#F0EBE1" stroke="#333333" stroke-width="1.5"/>
<rect x="16.5" y="17.5" width="15" height="3" rx="1" fill="#333333"/>
<rect x="16.5" y="22.5" width="5.5" height="3" rx="1" fill="#333333"/>
<rect x="23" y="22.5" width="5.5" height="3" rx="1" fill="#333333"/>
<rect x="29.5" y="22.5" width="2" height="3" rx="1" fill="#333333"/>
<path d="M19.5 28.5L21.5 30.5L25.5 26.5" stroke="#333333" stroke-width="1.5" stroke-linecap="round" stroke-linejoin="round"/>
<path d="M29.5 28.5L27.5 30.5L23.5 26.5" stroke="#333333" stroke-width="1.5" stroke-linecap="round" stroke-linejoin="round"/>
<rect x="6" y="6" width="9" height="9" rx="2" fill="#6A5ACD"/>
<path d="M9 7.5H12V9H9V7.5Z" fill="white"/>
<path d="M10.5 11.5L12 9H9L10.5 11.5Z" fill="white"/>
<rect x="33" y="6" width="9" height="9" rx="2" fill="#FF5733"/>
<path d="M36 7.5H39V9H36V7.5Z" fill="white"/>
<path d="M37.5 11.5L39 9H36L37.5 11.5Z" fill="white"/>
<rect x="6" y="33" width="9" height="9" rx="2" fill="#3CB371"/>
<path d="M9 34.5H12V36H9V34.5Z" fill="white"/>
<path d="M10.5 38.5L12 36H9L10.5 38.5Z" fill="white"/>
<rect x="33" y="33" width="9" height="9" rx="2" fill="#FFD700"/>
<path d="M36 34.5H39V36H36V34.5Z" fill="white"/>
<path d="M37.5 38.5L39 36H36L37.5 38.5Z" fill="white"/>
</svg>